Motion_pu04
version=1
nRows=15
nColumns=43
inDegrees=yes
endheader
time	pelvis_tilt	pelvis_list	pelvis_rotation	pelvis_tx	pelvis_ty	pelvis_tz	hip_flexion_r	hip_adduction_r	hip_rotation_r	knee_angle_r	ankle_angle_r	subtalar_angle_r	mtp_angle_r	hip_flexion_l	hip_adduction_l	hip_rotation_l	knee_angle_l	ankle_angle_l	subtalar_angle_l	mtp_angle_l	lumbar_extension	lumbar_bending	lumbar_rotation	neck_flexion	neck_lateral_bending	neck_rotation	arm_flex_r	arm_add_r	arm_rot_r	elbow_flex_r	pro_sup_r	wrist_flex_r	wrist_dev_r	hand_finger_flex_r	arm_flex_l	arm_add_l	arm_rot_l	elbow_flex_l	pro_sup_l	wrist_flex_l	wrist_dev_l	hand_finger_flex_l
      4.67500000	     -0.81863509	    -37.51511896	    -96.37775983	      0.04953164	      1.03974942	      1.39600544	      2.04873558	     -8.46016045	     -4.07335405	    -67.65266174	     13.80539773	    -19.32790453	     18.63789383	     -3.51190122	    -12.84594020	    -23.92874479	    -77.99442224	     12.47293496	    -12.74479334	     21.42485475	      0.00819406	      1.41441555	      2.25005855	    -23.72971152	     -3.66097931	      9.77020148	    112.56086001	    -15.66715558	     12.17289348	     65.97268478	    153.40129587	     26.34219093	      5.12925375	     67.12974788	    109.16386215	    -19.91610275	     13.52399650	     73.99414792	    147.73481631	     33.00260614	     21.07415273	     84.49578288
      4.67750000	     -0.85009935	    -37.87048505	    -96.35358453	      0.04957840	      1.04266470	      1.39597690	      1.88316214	     -8.45195268	     -4.17318931	    -67.29155401	     13.66995968	    -19.20076269	     18.84984294	     -3.61149116	    -12.85556803	    -23.92644598	    -77.80073381	     12.45039481	    -12.54217143	     21.47950283	     -0.08474576	      1.41931433	      2.23604206	    -24.24560676	     -3.64351579	      9.71142691	    111.77213646	    -15.54584625	     11.60963852	     66.48536274	    153.79691618	     26.46559453	      5.34377120	     67.20327129	    108.25633982	    -19.60703724	     12.72112341	     74.48798098	    148.33348134	     32.94084986	     21.21356759	     84.58992480
      4.68000000	     -0.86790913	    -38.15601974	    -96.34680124	      0.04962427	      1.04471951	      1.39554691	      1.97812886	     -8.37719089	     -4.09705586	    -67.21739532	     13.67794916	    -19.16314076	     18.90181713	     -3.50839781	    -12.81924132	    -23.83327487	    -77.75729617	     12.48809463	    -12.50601988	     21.49825271	     -0.28369617	      1.42375108	      2.23443840	    -24.20553341	     -3.64237794	      9.69158859	    111.37797923	    -15.61207204	     11.55246092	     66.90487336	    153.82677642	     26.47849885	      5.32889267	     67.23249927	    107.84931026	    -19.66635472	     12.63768395	     74.86655394	    148.41973079	     32.93938137	     21.20081600	     84.62190392
      4.68250000	     -0.89111749	    -38.46290231	    -96.31063426	      0.04963476	      1.04755116	      1.39550850	      1.88063111	     -8.34619203	     -4.17741713	    -66.90680430	     13.60000740	    -19.01196728	     19.03922799	     -3.55350089	    -12.81476098	    -23.81534746	    -77.54069569	     12.45276866	    -12.33954734	     21.54413754	     -0.33942000	      1.42241350	      2.18659010	    -24.50312791	     -3.63780975	      9.64419544	    110.59393681	    -15.47575528	     10.98207967	     67.41542638	    154.09705078	     26.55153573	      5.46114576	     67.30139029	    107.02642588	    -19.42718541	     11.95567381	     75.30214071	    148.83112427	     32.88709297	     21.26608549	     84.68163962
      4.68500000	     -0.89395534	    -38.76909044	    -96.29619575	      0.04963831	      1.04945542	      1.39483318	      1.97649106	     -8.29304068	     -4.13608664	    -66.84138924	     13.64022134	    -18.97762906	     19.08883043	     -3.41759068	    -12.79827169	    -23.73952575	    -77.57989976	     12.49987741	    -12.30492557	     21.57021243	     -0.59757058	      1.40400193	      2.20753472	    -24.62745485	     -3.63221204	      9.63354872	    110.26143381	    -15.53106782	     10.90275887	     67.80147861	    154.17205252	     26.57370734	      5.46055819	     67.33137347	    106.64090630	    -19.45457092	     11.84348813	     75.71163766	    148.95189888	     32.88463618	     21.25598284	     84.71234417
      4.68750000	     -0.90941631	    -39.05474208	    -96.26374501	      0.04959079	      1.05199115	      1.39451386	      1.96048906	     -8.21489961	     -4.12339251	    -66.59911687	     13.64591945	    -18.86614476	     19.15471683	     -3.37750295	    -12.76799365	    -23.65815150	    -77.42132073	     12.49200468	    -12.20140949	     21.60578901	     -0.71366676	      1.39657484	      2.17521437	    -24.76337401	     -3.63155291	      9.61426761	    109.61080798	    -15.49242511	     10.54740296	     68.36893368	    154.32577335	     26.60210757	      5.52321081	     67.38601066	    105.96702745	    -19.36969780	     11.41899694	     76.21740782	    149.18606854	     32.85971327	     21.29200673	     84.75787345
      4.69000000	     -0.92461164	    -39.36955483	    -96.15963027	      0.04981305	      1.05474240	      1.39440111	      1.84293631	     -8.27675359	     -4.39789068	    -66.28598177	     13.65124512	    -18.57569016	     19.69359017	     -3.40141067	    -12.75678973	    -23.58449455	    -77.23664370	     12.43732024	    -12.05850768	     21.96268619	     -0.78256644	      1.40885780	      2.11579356	    -25.23240495	     -3.65098751	      9.49545660	    108.90651932	    -15.32817841	      9.96298832	     68.84447421	    155.69438261	     27.12298847	      5.01323723	     67.32624351	    105.04259052	    -18.95569856	     10.50694051	     76.70563964	    151.42344396	     32.77209813	     20.21747952	     84.91308843
      4.69250000	     -0.94635971	    -39.63930126	    -96.16285513	      0.04977295	      1.05715786	      1.39407056	      1.86079074	     -8.18884397	     -4.33130442	    -66.05032446	     13.63043390	    -18.52809713	     19.73221261	     -3.34392359	    -12.73248038	    -23.54608092	    -77.10036989	     12.38718814	    -11.99708333	     21.99837448	     -0.88465335	      1.40385405	      2.09503615	    -25.46753445	     -3.61932172	      9.54329373	    108.32113575	    -15.28522258	      9.65263502	     69.25697991	    155.68628505	     27.11683540	      5.02882028	     67.33436611	    104.44910680	    -18.88073412	     10.14643348	     77.08530650	    151.39465839	     32.83930319	     20.14609156	     85.00836454
      4.69500000	     -0.97625676	    -39.91544912	    -96.17793773	      0.04968616	      1.05954844	      1.39367978	      1.88407410	     -8.11675647	     -4.31189481	    -65.81970959	     13.60659859	    -18.45310818	     19.76401120	     -3.29832262	    -12.72023795	    -23.50993901	    -76.96805033	     12.35512986	    -11.92988812	     22.04031238	     -1.00828986	      1.40080369	      2.08676214	    -25.69846552	     -3.60222508	      9.55435503	    107.74730686	    -15.24616599	      9.36151218	     69.70815044	    155.80722456	     27.13942318	      5.10586942	     67.35563856	    103.85029325	    -18.77589547	      9.75592671	     77.50594387	    151.54896788	     32.86230391	     20.16142484	     85.08088355
      4.69750000	     -0.99385413	    -40.20646230	    -96.19899259	      0.04962416	      1.06152162	      1.39298896	      1.97371437	     -8.06706402	     -4.28860241	    -65.69429335	     13.61022563	    -18.40961171	     19.77866975	     -3.16245145	    -12.70668367	    -23.47036342	    -76.96669628	     12.36882063	    -11.90023726	     22.06431723	     -1.24072621	      1.39561696	      2.13535918	    -25.84235395	     -3.59049364	      9.55703965	    107.38636816	    -15.26787684	      9.21973696	     70.07856247	    155.86739567	     27.15251497	      5.13660561	     67.37949467	    103.43965559	    -18.76040244	      9.58800297	     77.88795044	    151.63740140	     32.86952891	     20.17427865	     85.12048798
      4.70000000	     -1.04778833	    -40.48934953	    -96.22378500	      0.04959347	      1.06440246	      1.39289902	      1.89921841	     -8.01185035	     -4.32404662	    -65.34707423	     13.51183679	    -18.26026039	     19.80506248	     -3.22856099	    -12.72032706	    -23.52210981	    -76.71076303	     12.27134706	    -11.79438980	     22.11412898	     -1.26507306	      1.43151487	      2.15005735	    -26.27027148	     -3.56163553	      9.54552554	    106.63547017	    -15.14336895	      8.74361067	     70.54338117	    156.18290478	     27.26381685	      5.29698016	     67.43549673	    102.60172357	    -18.47113742	      8.91910430	     78.28678065	    152.06534008	     32.84874310	     20.25366677	     85.18969983
      4.70250000	     -1.07308599	    -40.78093049	    -96.25374947	      0.04954454	      1.06638641	      1.39217367	      2.00999813	     -7.92964387	     -4.21856523	    -65.24988568	     13.51786997	    -18.21228850	     19.81844658	     -3.10546452	    -12.67216339	    -23.42946654	    -76.68329441	     12.29822219	    -11.77510625	     22.13671443	     -1.50691871	      1.43012685	      2.18384470	    -26.34990775	     -3.55223900	      9.53326493	    106.28080431	    -15.20467812	      8.68505726	     70.94263659	    156.24452529	     27.29458554	      5.29673785	     67.46660012	    102.21740034	    -18.49142103	      8.81033519	     78.68287082	    152.17213431	     32.84919410	     20.24339225	     85.22181529
      4.70500000	     -1.11427856	    -41.06856814	    -96.31041691	      0.04941241	      1.06929344	      1.39200729	      1.94749175	     -7.87511529	     -4.21267994	    -64.91094608	     13.39497972	    -18.02510050	     19.83973871	     -3.18704399	    -12.67252396	    -23.51058026	    -76.40833225	     12.20284902	    -11.68424972	     22.18094262	     -1.54754998	      1.44656585	      2.24463194	    -26.72174063	     -3.52421139	      9.48755506	    105.53308237	    -15.09263630	      8.21244788	     71.43417397	    156.57998137	     27.44829023	      5.42479024	     67.55254195	    101.39358174	    -18.17791491	      8.13746472	     79.09010472	    152.64470006	     32.81709920	     20.27910333	     85.27863056
      4.70750000	     -1.13356743	    -41.36882032	    -96.34309680	      0.04934873	      1.07123965	      1.39119518	      2.07002940	     -7.79152216	     -4.09492629	    -64.84904002	     13.40955570	    -17.96870523	     19.85372761	     -3.06383338	    -12.61590333	    -23.41768538	    -76.38349239	     12.23410341	    -11.66963815	     22.20293403	     -1.81086247	      1.43912660	      2.29204162	    -26.82094962	     -3.51820675	      9.47220219	    105.20038860	    -15.16131733	      8.16712259	     71.82279625	    156.65031905	     27.49144007	      5.41595301	     67.59155454	    101.02790137	    -18.19441331	      8.03696943	     79.47252050	    152.76306748	     32.81942281	     20.25409999	     85.30677877
      4.71000000	     -1.14965727	    -41.66001214	    -96.40288209	      0.04923271	      1.07415393	      1.39096172	      2.02649574	     -7.76049567	     -4.04605681	    -64.52988531	     13.30359479	    -17.72141977	     19.87569083	     -3.14850569	    -12.58020904	    -23.51233863	    -76.10258548	     12.14652128	    -11.58908421	     22.24553475	     -1.86295604	      1.43696594	      2.38002204	    -27.14788213	     -3.49350614	      9.41848466	    104.46199531	    -15.06733549	      7.71102629	     72.33191657	    157.00214549	     27.67354743	      5.51563007	     67.70589981	    100.21666048	    -17.87345687	      7.38211692	     79.88001731	    153.25750968	     32.80120427	     20.24110771	     85.35258256
